# xmcd
#
# Track frame offsets: 
#        225
#        10915
#        23143
#        36055
#        48600
#        56858
#        70257
#        81419
#        95830
#        108962
#        122043
#        133199
#
# Disc length: 1986 seconds
#
# Revision: 0
# Processed by: cddbd v1.5.2PL0 Copyright (c) Steve Scherf et al.
# Submitted via: ExactAudioCopy v0.95b4
#
DISCID=ab07bf0c
DTITLE=Declan Nerney - I Wanna Love Again
DYEAR=2006
DGENRE=Country
TTITLE0=Highway To Nowhere
TTITLE1=No One Will Ever Know
TTITLE2=The Lassie's From Belmullet And The Boy's From Castlebar
TTITLE3=Barry And Dunne
TTITLE4=Bucks Polka.Clem Quinn
TTITLE5=Bould Thady Quill
TTITLE6=The Music And Country Clare
TTITLE7=Mother, Your Own Flesh And Blood
TTITLE8=Galway John
TTITLE9=I Wanna Love Again
TTITLE10=Take This Job And Shove It
TTITLE11=Black Velvet Band
EXTD=
EXTT0=
EXTT1=
EXTT2=
EXTT3=
EXTT4=
EXTT5=
EXTT6=
EXTT7=
EXTT8=
EXTT9=
EXTT10=
EXTT11=
PLAYORDER=
